<?xml version="1.0" encoding="UTF-8" standalone="no"?>
<svg width="60px" height="60px" viewBox="0 0 60 60" version="1.1" xmlns="http://www.w3.org/2000/svg" xmlns:xlink="http://www.w3.org/1999/xlink" xmlns:sketch="http://www.bohemiancoding.com/sketch/ns">
    <!-- Generator: Sketch 3.2.2 (9983) - http://www.bohemiancoding.com/sketch -->
    <title>Scooter</title>
    <desc>Created with Sketch.</desc>
    <defs></defs>
    <g id="stroked" stroke="none" stroke-width="1" fill="none" fill-rule="evenodd" sketch:type="MSPage">
        <g id="Transport" sketch:type="MSLayerGroup" transform="translate(-719.000000, -718.000000)" stroke="#f28500" stroke-width="2" stroke-linejoin="round">
            <g id="Scooter" transform="translate(726.000000, 722.000000)" sketch:type="MSShapeGroup">
                <rect id="Rectangle-1799" stroke-linecap="round" x="19" y="29" width="10" height="25"></rect>
                <path d="M18.597844,41.4500538 L16.9959464,41.4500538 C14.2367614,41.4500538 12.1438351,38.9688356 12.3213346,35.9068907 L13.6786654,12.4923378 C13.8084363,10.2537319 15.1158599,8.32506526 16.8881039,7.45005377 M31.470935,7.64542495 C33.0583917,8.59188815 34.2004774,10.4074983 34.3213346,12.4923378 L35.6786654,35.9068907 C35.8561336,38.9682951 33.7681781,41.4500538 30.9985532,41.4500538 L29.7649656,41.4500538" id="Rectangle-1800" stroke-linecap="round"></path>
                <circle id="Oval-1578" stroke-linecap="round" cx="24" cy="7" r="7"></circle>
                <path d="M25,1 L18,9" id="Line" stroke-linecap="square"></path>
                <path d="M31.2160844,7.17953814 L36.9983478,3.02893771" id="Path-3911" stroke-linecap="round"></path>
                <path d="M11.0016522,7.17953814 L16.7839156,3.02893771" id="Path-3911" stroke-linecap="round" transform="translate(13.892784, 5.104238) scale(-1, 1) translate(-13.892784, -5.104238) "></path>
                <rect id="Rectangle-1800" stroke-linecap="round" x="37" y="1" width="11" height="4"></rect>
                <rect id="Rectangle-1800" stroke-linecap="round" x="0" y="1" width="11" height="4"></rect>
            </g>
        </g>
    </g>
</svg>